<svg id="Capa_1" data-name="Capa 1" xmlns="http://www.w3.org/2000/svg" viewBox="0 0 349.27 78.76"><defs><style>.cls-1{fill:#f78b00;}.cls-1,.cls-2,.cls-3,.cls-4{fill-rule:evenodd;}.cls-2{fill:#ed5505;}.cls-3{fill:#00285f;}.cls-4{fill:#d4002a;}</style></defs><polygon class="cls-1" points="82.13 78.7 82.23 78.7 82.23 78.55 82.13 78.7"/><polygon class="cls-2" points="82 78.55 82 78.7 82.23 78.55 82 78.55"/><path class="cls-3" d="M83,79h0a0,0,0,0,1,0,0s0,0,0,0h0m0,0a0,0,0,0,0,0,0h0a0,0,0,0,0,0,0m0,0h0v0Zm0,0h0Zm0,.11s0,0,0,0v0h0v0h0v0h0v.1s0,0,0,0h0v0h0m-.07-.08h0a.06.06,0,0,0-.06.06.06.06,0,0,0,.06.06.05.05,0,0,0,0,0h0s0,0,0,0h.08a.07.07,0,0,0,0-.06m-.07,0a0,0,0,0,1,.06,0Zm-.07,0h0a.06.06,0,0,0-.06.06.06.06,0,0,0,.06.06l0,0s0,0,0,0,0,0,0,0h0a.05.05,0,0,0,0,0h0a.08.08,0,0,0,0,0V79Zm0,.09a0,0,0,0,1,0,0s0,0,0,0,0,0,0,0a0,0,0,0,1,0,0m-.13,0a.06.06,0,0,1-.06-.06.06.06,0,0,1,.06-.06h0v0h0v.15h0l0,0m0-.1s0,0,0,0a0,0,0,1,0,.06,0s0,0,0,0m-.07,0V79h0v.06a0,0,0,0,1,0,0s0,0,0,0V79h0v.06a.06.06,0,0,0,0,.06.06.06,0,0,0,.06-.06m-.23.06V79h0s.05,0,.05,0a0,0,0,0,1,0,0,0,0,0,0,1,0,0,0,0,0,0,1,0,0Zm0,0h0s0,0,0,0,0,0,0,0h0v0Zm0-.07h0v0s0,0,0,0h0v0Z" transform="translate(0 -0.45)"/><path class="cls-4" d="M98.68,9.44A8.61,8.61,0,0,0,92.7,7c-2,0-4.56.71-4.56,3.27,0,2.17,1.93,2.88,5,3.88,4.43,1.43,10.12,3.27,10.12,9.79,0,7.52-6,10.87-12.5,10.87-4.64,0-9.37-1.71-12.21-4.68l4.85-5a10.3,10.3,0,0,0,7.4,3.18c2.38,0,4.51-.92,4.51-3.56s-2.5-3.3-6.77-4.72-8.32-3.39-8.32-9.28C80.2,3.46,86.72.45,92.83.45a16.33,16.33,0,0,1,10.7,4ZM21.58,21.19H13.34L17.48,10ZM35,33.9,21.66,1.29H13.8L0,33.9H8.7l2.38-6.4H23.71l2.55,6.4ZM63,1.29H54.32L46.75,24.87,39.05,1.29H30.19L42.52,33.9h7.87ZM66.15,33.9h7.94V1.29H66.15Zm40.6-29.85a2.8,2.8,0,1,0,2.8-2.76,2.77,2.77,0,0,0-2.8,2.76m.42,0a2.34,2.34,0,1,1,2.34,2.34,2.37,2.37,0,0,1-2.34-2.34m1.29,1.54h.59V4.3h.42l.71,1.29h.67L110,4.21a.78.78,0,0,0,.71-.83c0-.67-.58-.92-1.17-.92h-1.09V5.59ZM109,3.84V3h.5c.29,0,.63.08.63.42s-.38.46-.71.46Z" transform="translate(0 -0.45)"/><polygon class="cls-1" points="163.31 33.74 185.37 33.74 185.37 1.09 163.31 33.74"/><polygon class="cls-2" points="135.96 0.54 135.96 33.74 185.37 0.54 135.96 0.54"/><path class="cls-3" d="M345.75,2.26a3.5,3.5,0,1,1-3.53,3.53,3.55,3.55,0,0,1,3.53-3.53m0,6.45a3,3,0,1,0-3-3,3,3,0,0,0,3,3m-1.38-5h1.38c.71,0,1.48.33,1.48,1.16a1,1,0,0,1-.93,1l1,1.71h-.88L345.52,6H345V7.66h-.72V3.75Zm1.32,1.76c.39,0,.88-.11.88-.6s-.44-.56-.77-.56h-.66V5.46h.55ZM337.2,29.39c-2.76,0-4.08-1.38-4.08-4.24V14h5.35V9.21h-5.35v-7h-5.46V25.09c0,5.79,3.31,9.27,8.65,9.27a16.56,16.56,0,0,0,2.21-.17V29.34c-.66.05-1,.05-1.32.05M321.48,12.13a11.64,11.64,0,0,0-8.6-3.47c-6.9,0-12.19,5.73-12.19,13S305.87,34.47,313,34.47a12.86,12.86,0,0,0,9.87-4.91l-4.24-3A7.25,7.25,0,0,1,313,29.5a6.86,6.86,0,0,1-6.62-5.68h18.31c-.05-.11,1.66-6.62-3.25-11.69m-15,7.06c.22-1.49,2-5.63,6.45-5.63,4.3,0,6.23,4,6.4,5.63Zm-14-10v2.26a10.38,10.38,0,0,0-7.22-2.81,12.47,12.47,0,0,0-12.47,12.85c0,7.34,5.46,12.91,12.47,12.91a10.56,10.56,0,0,0,7.06-2.71s1.1,9.43-7.23,9.43c-3.53,0-6-2.53-7.11-4.41l-4.36,3.09a12.89,12.89,0,0,0,11.47,6.45,13.26,13.26,0,0,0,8.6-2.86c2.65-2.32,4.09-5.57,4.09-9.93V9.15Zm-7.22,20.19c-3.92,0-7-3.48-7-7.94,0-4.31,3.15-7.78,7-7.78s7.06,3.58,7.06,7.78c0,4.41-3.15,7.94-7.06,7.94m-28,5a12.47,12.47,0,0,1-12.46-12.85c0-7.34,5.46-12.91,12.46-12.91a10.58,10.58,0,0,1,7.06,2.7V1h5.46V33.86h-5.3V31.54a10.33,10.33,0,0,1-7.22,2.82m0-20.68c-3.92,0-7,3.47-7,7.88s3.14,7.78,7,7.78,7.06-3.59,7.06-7.78c0-4.36-3.14-7.88-7.06-7.88m-15.17,8.21V9.15H236.6V21.89c0,4.52-2.31,7.45-5.95,7.45s-6-2.93-6-7.45V9.15h-5.46V21.89c0,7.61,5.08,12.47,11.42,12.47s11.41-4.86,11.41-12.47m-48.42,12.3V1h11.53c4.47,0,9.93,2.37,9.93,8.6,0,3.75-1.77,6.13-3.31,7,4.24,1.6,5.07,5.62,5.07,8,0,5.3-4.36,9.6-11.36,9.6Zm11.2-5a9.77,9.77,0,0,0,3.42-.5A4.77,4.77,0,0,0,208.2,20a8.77,8.77,0,0,0-3.86-.55h-5.18v9.82ZM204,14.61a9.91,9.91,0,0,0,3.58-.49c1.43-.78,1.88-2,1.88-3.92a3.93,3.93,0,0,0-2.27-3.69A7.32,7.32,0,0,0,203.79,6h-4.63v8.66Z" transform="translate(0 -0.45)"/></svg>