<svg width="683" height="683" viewBox="0 0 683 683" fill="none" xmlns="http://www.w3.org/2000/svg">
<path d="M625.672 21H56.2969C36.8008 21.0117 20.9961 36.8242 21 56.3281V625.703C21.0117 645.199 36.8242 661.004 56.3281 661H362.875V413.5H279.75V316.625H362.875V245.332C362.875 162.656 413.348 117.656 487.098 117.656C522.422 117.656 552.777 120.289 561.625 121.465V207.875H510.77C470.645 207.875 462.875 226.941 462.875 254.926V316.625H558.812L546.312 413.5H462.875V661H625.672C645.18 661.004 660.996 645.195 661 625.688C661 625.684 661 625.68 661 625.672V56.2969C660.992 36.8008 645.176 20.9961 625.672 21Z" fill="white"/>
</svg>
