<?xml version="1.0" encoding="utf-8"?>
<!-- Generator: Adobe Illustrator 25.0.1, SVG Export Plug-In . SVG Version: 6.00 Build 0)  -->
<svg version="1.1" id="Capa_1" xmlns="http://www.w3.org/2000/svg" xmlns:xlink="http://www.w3.org/1999/xlink" x="0px" y="0px"
	 viewBox="0 0 156 37" style="enable-background:new 0 0 156 37;" xml:space="preserve">
<style type="text/css">
	.st0{fill:#FFFFFF;}
	.st1{fill-rule:evenodd;clip-rule:evenodd;fill:#FFFFFF;}
</style>
<g>
	<path class="st0" d="M52.5,27.3c0.5,0,1,0,1.4-0.1c0.4,0,0.8-0.1,1.2-0.2c0.4-0.1,0.7-0.2,1-0.4c0.3-0.1,0.6-0.3,1-0.5v-3.8h-2.8
		c-0.1,0-0.1,0-0.2-0.1c-0.1,0-0.1-0.1-0.1-0.2v-0.6H58v5c-0.4,0.2-0.8,0.5-1.1,0.7c-0.4,0.2-0.8,0.3-1.3,0.5
		c-0.5,0.1-0.9,0.2-1.5,0.3c-0.5,0.1-1.1,0.1-1.7,0.1c-1.1,0-2-0.2-2.9-0.5c-0.9-0.3-1.6-0.8-2.3-1.4c-0.6-0.6-1.1-1.4-1.5-2.3
		c-0.3-0.9-0.5-1.9-0.5-3c0-1.1,0.2-2.1,0.5-3c0.3-0.9,0.8-1.6,1.5-2.3c0.6-0.6,1.4-1.1,2.3-1.4c0.9-0.3,1.9-0.5,3.1-0.5
		c0.6,0,1.1,0,1.6,0.1c0.5,0.1,0.9,0.2,1.3,0.3c0.4,0.1,0.8,0.3,1.1,0.5c0.4,0.2,0.7,0.4,1,0.7l-0.3,0.4C57.4,16,57.3,16,57.2,16
		c-0.1,0-0.1,0-0.2,0c-0.1,0-0.3-0.1-0.5-0.3c-0.2-0.1-0.5-0.3-0.8-0.5c-0.3-0.2-0.8-0.3-1.3-0.4c-0.5-0.1-1.1-0.2-1.8-0.2
		c-1,0-1.8,0.1-2.6,0.4c-0.8,0.3-1.4,0.7-2,1.2c-0.5,0.5-1,1.2-1.3,2c-0.3,0.8-0.4,1.7-0.4,2.6c0,1,0.1,1.9,0.4,2.7
		c0.3,0.8,0.7,1.5,1.3,2c0.5,0.5,1.2,1,1.9,1.3C50.8,27.2,51.6,27.3,52.5,27.3L52.5,27.3z M60.9,28v-9.9h0.5c0.1,0,0.2,0,0.3,0.1
		c0.1,0,0.1,0.1,0.1,0.2l0.1,2.1c0.3-0.8,0.8-1.4,1.3-1.9c0.6-0.4,1.2-0.7,2.1-0.7c0.3,0,0.6,0,0.9,0.1c0.3,0.1,0.5,0.2,0.8,0.3
		L66.7,19c0,0.1-0.1,0.2-0.2,0.2c0,0-0.1,0-0.2,0c-0.1,0-0.2-0.1-0.3-0.1c-0.1,0-0.3-0.1-0.4-0.1c-0.2,0-0.4,0-0.6,0
		c-0.8,0-1.4,0.2-1.9,0.7c-0.5,0.5-0.9,1.1-1.2,2V28H60.9L60.9,28z M72.7,17.9c0.6,0,1.1,0.1,1.6,0.3c0.5,0.2,0.9,0.5,1.3,0.8
		c0.4,0.4,0.7,0.8,0.9,1.4c0.2,0.5,0.3,1.2,0.3,1.9c0,0.1,0,0.2-0.1,0.3c0,0.1-0.1,0.1-0.2,0.1H69v0.2c0,0.7,0.1,1.4,0.3,2
		c0.2,0.6,0.4,1,0.8,1.4c0.3,0.4,0.7,0.7,1.2,0.9c0.5,0.2,1,0.3,1.6,0.3c0.5,0,1-0.1,1.4-0.2c0.4-0.1,0.7-0.2,1-0.4
		c0.3-0.1,0.5-0.3,0.6-0.4c0.2-0.1,0.3-0.2,0.3-0.2c0.1,0,0.2,0,0.2,0.1l0.3,0.3c-0.2,0.2-0.4,0.4-0.7,0.6c-0.3,0.2-0.6,0.3-0.9,0.4
		c-0.3,0.1-0.7,0.2-1.1,0.3c-0.4,0.1-0.8,0.1-1.2,0.1c-0.7,0-1.4-0.1-1.9-0.4c-0.6-0.2-1.1-0.6-1.5-1c-0.4-0.4-0.7-1-1-1.7
		c-0.2-0.7-0.3-1.4-0.3-2.2c0-0.7,0.1-1.4,0.3-2c0.2-0.6,0.5-1.1,0.9-1.5c0.4-0.4,0.9-0.8,1.5-1C71.3,18.1,72,17.9,72.7,17.9
		L72.7,17.9z M72.7,18.7c-0.5,0-1,0.1-1.4,0.2c-0.4,0.2-0.8,0.4-1.1,0.7c-0.3,0.3-0.6,0.7-0.8,1.1c-0.2,0.4-0.3,0.9-0.4,1.4h6.8
		c0-0.5-0.1-1-0.2-1.4c-0.2-0.4-0.4-0.8-0.6-1.1c-0.3-0.3-0.6-0.5-1-0.7C73.6,18.7,73.2,18.7,72.7,18.7L72.7,18.7z M83,17.9
		c0.6,0,1.1,0.1,1.6,0.3c0.5,0.2,0.9,0.5,1.3,0.8c0.4,0.4,0.7,0.8,0.9,1.4c0.2,0.5,0.3,1.2,0.3,1.9c0,0.1,0,0.2-0.1,0.3
		c0,0.1-0.1,0.1-0.2,0.1h-7.5v0.2c0,0.7,0.1,1.4,0.3,2c0.2,0.6,0.4,1,0.8,1.4c0.3,0.4,0.7,0.7,1.2,0.9c0.5,0.2,1,0.3,1.6,0.3
		c0.5,0,1-0.1,1.4-0.2c0.4-0.1,0.7-0.2,1-0.4c0.3-0.1,0.5-0.3,0.6-0.4c0.2-0.1,0.3-0.2,0.3-0.2c0.1,0,0.2,0,0.2,0.1l0.3,0.3
		c-0.2,0.2-0.4,0.4-0.7,0.6c-0.3,0.2-0.6,0.3-0.9,0.4c-0.3,0.1-0.7,0.2-1.1,0.3c-0.4,0.1-0.8,0.1-1.2,0.1c-0.7,0-1.4-0.1-1.9-0.4
		c-0.6-0.2-1.1-0.6-1.5-1c-0.4-0.4-0.7-1-1-1.7c-0.2-0.7-0.3-1.4-0.3-2.2c0-0.7,0.1-1.4,0.3-2c0.2-0.6,0.5-1.1,0.9-1.5
		c0.4-0.4,0.9-0.8,1.5-1C81.6,18.1,82.2,17.9,83,17.9L83,17.9z M83,18.7c-0.5,0-1,0.1-1.4,0.2c-0.4,0.2-0.8,0.4-1.1,0.7
		c-0.3,0.3-0.6,0.7-0.8,1.1c-0.2,0.4-0.3,0.9-0.4,1.4h6.8c0-0.5-0.1-1-0.2-1.4c-0.2-0.4-0.4-0.8-0.6-1.1c-0.3-0.3-0.6-0.5-1-0.7
		C83.9,18.7,83.5,18.7,83,18.7L83,18.7z M89.3,28v-9.9h0.6c0.2,0,0.3,0.1,0.3,0.2l0.1,1.5c0.5-0.6,1-1,1.7-1.4
		c0.6-0.3,1.3-0.5,2.1-0.5c0.6,0,1.1,0.1,1.5,0.3c0.4,0.2,0.8,0.4,1.1,0.7c0.3,0.3,0.5,0.7,0.6,1.2c0.1,0.5,0.2,1,0.2,1.5V28h-1
		v-6.3c0-0.9-0.2-1.7-0.7-2.2c-0.4-0.5-1.1-0.8-2-0.8c-0.7,0-1.3,0.2-1.9,0.5c-0.6,0.3-1.1,0.8-1.6,1.4V28H89.3L89.3,28z"/>
	<path class="st0" d="M111.1,13.5v2.6h-6.2v3.6h5.2v2.6h-5.2V28h-3.5V13.5H111.1L111.1,13.5z M115.9,13.1V28h-3.2V13.1H115.9
		L115.9,13.1z M125.5,28c-0.3,0-0.5,0-0.7-0.1c-0.2-0.1-0.3-0.2-0.4-0.5l-0.2-0.6c-0.3,0.2-0.5,0.4-0.8,0.6
		c-0.3,0.2-0.5,0.3-0.8,0.4c-0.3,0.1-0.6,0.2-0.9,0.3c-0.3,0.1-0.6,0.1-1,0.1c-0.5,0-0.9-0.1-1.3-0.2c-0.4-0.1-0.7-0.3-1-0.5
		c-0.3-0.2-0.5-0.5-0.7-0.9c-0.2-0.4-0.2-0.8-0.2-1.2c0-0.4,0.1-0.7,0.3-1.1c0.2-0.4,0.5-0.7,1-1c0.5-0.3,1.1-0.6,1.9-0.8
		c0.8-0.2,1.8-0.3,3.1-0.3v-0.4c0-0.6-0.1-1-0.4-1.3c-0.3-0.3-0.6-0.4-1.1-0.4c-0.4,0-0.7,0-0.9,0.1c-0.2,0.1-0.5,0.2-0.7,0.3
		c-0.2,0.1-0.4,0.2-0.6,0.3c-0.2,0.1-0.4,0.1-0.6,0.1c-0.2,0-0.4-0.1-0.6-0.2c-0.2-0.1-0.3-0.2-0.4-0.4l-0.6-1
		c0.7-0.6,1.4-1,2.2-1.2c0.8-0.3,1.6-0.4,2.6-0.4c0.7,0,1.2,0.1,1.8,0.3c0.5,0.2,1,0.5,1.3,0.8c0.4,0.4,0.6,0.8,0.8,1.3
		c0.2,0.5,0.3,1,0.3,1.6V28H125.5L125.5,28z M121.8,26.1c0.4,0,0.8-0.1,1.1-0.2c0.3-0.1,0.6-0.4,1-0.7v-1.4c-0.6,0-1.2,0-1.6,0.1
		c-0.4,0.1-0.7,0.2-1,0.3c-0.2,0.1-0.4,0.3-0.5,0.4c-0.1,0.2-0.1,0.3-0.1,0.5c0,0.4,0.1,0.6,0.3,0.7C121.1,26,121.4,26.1,121.8,26.1
		L121.8,26.1z M128.9,28V17.7h2c0.2,0,0.4,0,0.5,0.1c0.1,0.1,0.2,0.2,0.3,0.4l0.2,0.6c0.2-0.2,0.4-0.3,0.6-0.5
		c0.2-0.1,0.4-0.3,0.6-0.4c0.2-0.1,0.5-0.2,0.7-0.3c0.3-0.1,0.5-0.1,0.9-0.1c0.7,0,1.2,0.2,1.6,0.5c0.4,0.3,0.8,0.8,1,1.3
		c0.2-0.3,0.4-0.6,0.7-0.8c0.3-0.2,0.5-0.4,0.8-0.5c0.3-0.1,0.6-0.2,1-0.3c0.3-0.1,0.7-0.1,1-0.1c0.6,0,1.2,0.1,1.7,0.3
		c0.5,0.2,0.9,0.4,1.2,0.8c0.3,0.3,0.6,0.7,0.7,1.2c0.2,0.5,0.3,1,0.3,1.7V28h-3.2v-6.5c0-1.1-0.5-1.6-1.4-1.6
		c-0.4,0-0.8,0.1-1.1,0.4c-0.3,0.3-0.4,0.7-0.4,1.2V28h-3.2v-6.5c0-0.6-0.1-1-0.4-1.2c-0.2-0.2-0.6-0.4-1.1-0.4
		c-0.3,0-0.6,0.1-0.8,0.2c-0.3,0.1-0.5,0.3-0.7,0.6V28H128.9L128.9,28z M151.1,17.5c0.7,0,1.4,0.1,2,0.3c0.6,0.2,1.1,0.5,1.5,0.9
		c0.4,0.4,0.8,0.9,1,1.5c0.2,0.6,0.4,1.2,0.4,2c0,0.2,0,0.4,0,0.6c0,0.1-0.1,0.3-0.1,0.3c-0.1,0.1-0.1,0.1-0.2,0.2
		c-0.1,0-0.2,0-0.4,0H149c0.1,0.9,0.4,1.5,0.8,1.9c0.4,0.4,1,0.6,1.7,0.6c0.4,0,0.7,0,1-0.1c0.3-0.1,0.5-0.2,0.7-0.3
		c0.2-0.1,0.4-0.2,0.6-0.3c0.2-0.1,0.4-0.1,0.6-0.1c0.3,0,0.5,0.1,0.6,0.3l0.9,1.1c-0.3,0.4-0.7,0.7-1.1,0.9
		c-0.4,0.2-0.8,0.4-1.2,0.5c-0.4,0.1-0.8,0.2-1.2,0.3c-0.4,0-0.8,0.1-1.2,0.1c-0.8,0-1.5-0.1-2.1-0.4c-0.7-0.2-1.2-0.6-1.7-1
		c-0.5-0.5-0.9-1-1.2-1.7c-0.3-0.7-0.4-1.5-0.4-2.4c0-0.7,0.1-1.3,0.4-2c0.2-0.6,0.6-1.2,1.1-1.6c0.5-0.5,1-0.8,1.7-1.1
		C149.6,17.7,150.3,17.5,151.1,17.5L151.1,17.5z M151.2,19.6c-0.6,0-1.1,0.2-1.5,0.5c-0.3,0.3-0.6,0.8-0.7,1.4h4
		c0-0.2,0-0.5-0.1-0.7c-0.1-0.2-0.2-0.4-0.3-0.6c-0.1-0.2-0.3-0.3-0.6-0.4C151.8,19.7,151.5,19.6,151.2,19.6L151.2,19.6z"/>
	<path class="st1" d="M26.4,0c0.3-0.1,0.2,0.2,0,0.3c-11.5,5,4,18.2,2.5,26.6c-0.7,4.1-5,8.7-15.7,10.1c0,0,0,0.5,0,0
		c0-3-2.9-4.5-4.5-5.7c-22.3-15.8,5.6-12.8,2.3-20.9C8.7,4.8,16.5,3.3,26.4,0L26.4,0z"/>
	<path class="st1" d="M31.9,7.2c0.1-0.3,0.2,0,0.2,0.1c-1.1,2.3-5.3,8.3-5.6,7.9c-0.3-0.5-1.9-2.9-2.3-4.5
		C24.2,10.6,30.6,10,31.9,7.2L31.9,7.2z"/>
</g>
</svg>
